<svg width="24" height="24" viewBox="0 0 24 24" fill="none" xmlns="http://www.w3.org/2000/svg">
<path d="M8.50324 7.14124L8.78735 7.4253C8.97562 7.61358 8.97562 7.91886 8.78735 8.10717L5.41524 11.4598H20.5179C20.7841 11.4598 21 11.6757 21 11.942V12.3438C21 12.61 20.7841 12.8259 20.5179 12.8259H5.41524L8.78735 16.1786C8.97562 16.3669 8.97562 16.6721 8.78735 16.8605L8.50324 17.1445C8.31497 17.3328 8.00969 17.3328 7.82141 17.1445L3.14121 12.4838C2.95293 12.2955 2.95293 11.9902 3.14121 11.8019L7.82141 7.14124C8.00969 6.95292 8.31497 6.95292 8.50324 7.14124Z" fill="black"/>
</svg>