<svg width="14" height="14" viewBox="0 0 14 14" fill="none" xmlns="http://www.w3.org/2000/svg">
<path fill-rule="evenodd" clip-rule="evenodd" d="M8.06666 3.86668C8.06666 3.40445 7.66222 3.00001 7.19999 3.00001C6.73777 3.00001 6.33333 3.40445 6.33333 3.86668C6.33333 4.3289 6.67999 4.73334 7.19999 4.73334C7.71999 4.73334 8.06666 4.3289 8.06666 3.86668ZM6.22222 10.3333H8.44444C8.77777 10.3333 8.99999 10.176 8.99999 9.86143C8.99999 9.54683 8.77777 9.33709 8.44444 9.33709H7.99999C7.94444 9.33709 7.88888 9.28465 7.88888 9.23222V6.71537C7.88888 6.13859 7.38888 5.66668 6.77777 5.66668H6.22222C5.88888 5.66668 5.66666 5.87641 5.66666 6.19102C5.66666 6.50563 5.88888 6.71537 6.22222 6.71537H6.66666C6.72222 6.71537 6.77777 6.7678 6.77777 6.82023V9.17978C6.77777 9.23222 6.72222 9.28465 6.66666 9.28465H6.22222C5.88888 9.28465 5.66666 9.49439 5.66666 9.809C5.66666 10.1236 5.88888 10.3333 6.22222 10.3333ZM7 0.333344C3.33333 0.333344 0.333328 3.33334 0.333328 7.00001C0.333328 10.6667 3.33333 13.6667 7 13.6667C10.6667 13.6667 13.6667 10.6667 13.6667 7.00001C13.6667 3.33334 10.6667 0.333344 7 0.333344Z" fill="white"/>
</svg>
