<svg width="16" height="16" viewBox="0 0 16 16" fill="none" xmlns="http://www.w3.org/2000/svg">
<path fill-rule="evenodd" clip-rule="evenodd" d="M11.8 4.86L11.7895 6.91053C12.6855 7.36039 13.2716 8.26 13.3333 9.26V12.06C13.2511 13.528 12.0679 14.6981 10.6013 14.7348L5.4 14.7267C3.96849 14.7267 2.73401 13.5253 2.66667 12.06V9.26C2.75012 7.80346 3.94322 6.66087 5.4 6.59333H10.1221C10.2387 6.59333 10.386 6.4834 10.386 6.31375V4.86C10.2606 3.61434 9.25184 2.66463 8 2.66463C6.74815 2.66463 5.72196 3.63747 5.61729 4.86C5.60528 5.0962 5.47144 5.55328 4.91405 5.55328C4.35666 5.55328 4.21018 5.09547 4.21882 4.8604C4.30435 2.82675 6.01177 1.26 8 1.26C9.98822 1.26 11.8 2.87178 11.8 4.86ZM8 11.6201C8.62017 11.6201 9.12281 11.1063 9.12281 10.4967C9.12281 9.88713 8.62017 9.37453 8 9.37333C7.37983 9.37214 6.87719 9.86034 6.87719 10.4967C6.87719 11.1331 7.37983 11.6201 8 11.6201Z" fill="#4F5E71"/>
</svg>
