<svg width="16" height="16" viewBox="0 0 16 16" fill="none" xmlns="http://www.w3.org/2000/svg">
<path fill-rule="evenodd" clip-rule="evenodd" d="M9.06666 4.86668C9.06666 4.40445 8.66222 4.00001 8.19999 4.00001C7.73777 4.00001 7.33333 4.40445 7.33333 4.86668C7.33333 5.3289 7.67999 5.73334 8.19999 5.73334C8.71999 5.73334 9.06666 5.3289 9.06666 4.86668ZM7.22222 11.3333H9.44444C9.77777 11.3333 9.99999 11.176 9.99999 10.8614C9.99999 10.5468 9.77777 10.3371 9.44444 10.3371H8.99999C8.94444 10.3371 8.88888 10.2847 8.88888 10.2322V7.71537C8.88888 7.13859 8.38888 6.66668 7.77777 6.66668H7.22222C6.88888 6.66668 6.66666 6.87641 6.66666 7.19102C6.66666 7.50563 6.88888 7.71537 7.22222 7.71537H7.66666C7.72222 7.71537 7.77777 7.7678 7.77777 7.82023V10.1798C7.77777 10.2322 7.72222 10.2847 7.66666 10.2847H7.22222C6.88888 10.2847 6.66666 10.4944 6.66666 10.809C6.66666 11.1236 6.88888 11.3333 7.22222 11.3333ZM8 1.33334C4.33333 1.33334 1.33333 4.33334 1.33333 8.00001C1.33333 11.6667 4.33333 14.6667 8 14.6667C11.6667 14.6667 14.6667 11.6667 14.6667 8.00001C14.6667 4.33334 11.6667 1.33334 8 1.33334Z" fill="#262626"/>
</svg>
