<svg width="16" height="16" viewBox="0 0 16 16" fill="none" xmlns="http://www.w3.org/2000/svg">
<path fill-rule="evenodd" clip-rule="evenodd" d="M9.06665 4.86668C9.06665 4.40445 8.6622 4.00001 8.19998 4.00001C7.73776 4.00001 7.33331 4.40445 7.33331 4.86668C7.33331 5.3289 7.67998 5.73334 8.19998 5.73334C8.71998 5.73334 9.06665 5.3289 9.06665 4.86668ZM7.2222 11.3333H9.44442C9.77776 11.3333 9.99998 11.176 9.99998 10.8614C9.99998 10.5468 9.77776 10.3371 9.44442 10.3371H8.99998C8.94442 10.3371 8.88887 10.2847 8.88887 10.2322V7.71537C8.88887 7.13859 8.38887 6.66668 7.77776 6.66668H7.2222C6.88887 6.66668 6.66665 6.87641 6.66665 7.19102C6.66665 7.50563 6.88887 7.71537 7.2222 7.71537H7.66665C7.7222 7.71537 7.77776 7.7678 7.77776 7.82023V10.1798C7.77776 10.2322 7.7222 10.2847 7.66665 10.2847H7.2222C6.88887 10.2847 6.66665 10.4944 6.66665 10.809C6.66665 11.1236 6.88887 11.3333 7.2222 11.3333ZM7.99998 1.33334C4.33331 1.33334 1.33331 4.33334 1.33331 8.00001C1.33331 11.6667 4.33331 14.6667 7.99998 14.6667C11.6666 14.6667 14.6666 11.6667 14.6666 8.00001C14.6666 4.33334 11.6666 1.33334 7.99998 1.33334Z" fill="#970C0C"/>
</svg>
