<svg width="16" height="16" viewBox="0 0 16 16" fill="none" xmlns="http://www.w3.org/2000/svg">
<path fill-rule="evenodd" clip-rule="evenodd" d="M11.7895 6.91052V5.04947C11.7895 2.9566 10.0929 1.26 8 1.26C5.90713 1.26 4.21053 2.9566 4.21053 5.04947V6.91052C3.26765 7.38359 2.6708 8.34658 2.66667 9.40147V11.9278C2.66822 13.4774 3.92405 14.7333 5.47369 14.7348H10.5263C12.0759 14.7333 13.3318 13.4774 13.3333 11.9278V9.40147C13.3292 8.34658 12.7324 7.38359 11.7895 6.91052ZM9.12281 10.4973C9.12281 11.1174 8.62011 11.6201 8 11.6201C7.37989 11.6201 6.87719 11.1174 6.87719 10.4973C6.87719 9.87722 7.37989 9.37452 8 9.37452C8.62011 9.37452 9.12281 9.87722 9.12281 10.4973ZM10.386 5.05003C10.3841 3.73316 9.31687 2.66618 8 2.66463C6.68335 2.66618 5.6162 3.73282 5.61404 5.04947V6.31375C5.61404 6.46878 5.73971 6.59445 5.89474 6.59445H10.1053C10.2603 6.59445 10.386 6.46878 10.386 6.31375V5.05003Z" fill="#FF6112"/>
</svg>
