<svg width="203" height="120" viewBox="0 0 203 120" fill="none" xmlns="http://www.w3.org/2000/svg">
<mask id="mask0_4137_7545" style="mask-type:alpha" maskUnits="userSpaceOnUse" x="0" y="0" width="203" height="120">
<rect width="203" height="120" fill="#C4C4C4"/>
</mask>
<g mask="url(#mask0_4137_7545)">
<rect x="109.085" y="2.37354" width="57.892" height="57.892" transform="rotate(39.0507 109.085 2.37354)" fill="#FFE7DA"/>
<path d="M125.95 16.0552L109.085 2.37354L97.9857 16.0552" stroke="black" stroke-width="0.5"/>
<rect x="139.576" y="11.2863" width="53.7347" height="58.0271" transform="rotate(63.675 139.576 11.2863)" fill="white"/>
<g opacity="0.5">
<path opacity="0.5" d="M115.799 77.203L113.308 78.4667L114.607 81.0271L117.098 79.7634L115.799 77.203Z" fill="#5CA898"/>
<path opacity="0.5" d="M113.237 72.1531L110.746 73.4169L112.044 75.9772L114.536 74.7135L113.237 72.1531Z" fill="#5CA898"/>
<path opacity="0.5" d="M110.674 67.0981L108.182 68.3619L109.482 70.9247L111.974 69.6609L110.674 67.0981Z" fill="#5CA898"/>
<path opacity="0.5" d="M108.11 62.0458L105.619 63.3095L106.919 65.8723L109.41 64.6085L108.11 62.0458Z" fill="#5CA898"/>
<path opacity="0.5" d="M105.548 56.9959L103.056 58.2597L104.356 60.8224L106.848 59.5587L105.548 56.9959Z" fill="#5CA898"/>
<path opacity="0.5" d="M102.941 52.0571L100.442 53.3192L101.74 55.8901L104.24 54.628L102.941 52.0571Z" fill="#5CA898"/>
<path opacity="0.5" d="M100.424 46.8929L97.9329 48.1566L99.2328 50.7194L101.724 49.4556L100.424 46.8929Z" fill="#5CA898"/>
<path opacity="0.5" d="M97.8614 41.8418L95.3699 43.1056L96.6699 45.6683L99.1613 44.4046L97.8614 41.8418Z" fill="#5CA898"/>
<path opacity="0.5" d="M95.2997 36.7904L92.8083 38.0542L94.107 40.6145L96.5985 39.3508L95.2997 36.7904Z" fill="#5CA898"/>
<path opacity="0.5" d="M120.85 74.6418L118.359 75.9055L119.657 78.4659L122.149 77.2022L120.85 74.6418Z" fill="#5CA898"/>
<path opacity="0.5" d="M118.288 69.5901L115.797 70.8539L117.096 73.4143L119.587 72.1505L118.288 69.5901Z" fill="#5CA898"/>
<path opacity="0.5" d="M115.725 64.5363L113.234 65.8001L114.534 68.3628L117.025 67.0991L115.725 64.5363Z" fill="#5CA898"/>
<path opacity="0.5" d="M113.162 59.4853L110.671 60.749L111.971 63.3118L114.462 62.048L113.162 59.4853Z" fill="#5CA898"/>
<path opacity="0.5" d="M110.599 54.4342L108.108 55.698L109.408 58.2607L111.899 56.997L110.599 54.4342Z" fill="#5CA898"/>
<path opacity="0.5" d="M108.037 49.3815L105.546 50.6453L106.846 53.208L109.337 51.9443L108.037 49.3815Z" fill="#5CA898"/>
<path opacity="0.5" d="M105.476 44.3298L102.984 45.5936L104.284 48.1564L106.776 46.8926L105.476 44.3298Z" fill="#5CA898"/>
<path opacity="0.5" d="M102.913 39.2788L100.421 40.5425L101.721 43.1053L104.213 41.8415L102.913 39.2788Z" fill="#5CA898"/>
<path opacity="0.5" d="M100.351 34.2274L97.8595 35.4912L99.1583 38.0516L101.65 36.7878L100.351 34.2274Z" fill="#5CA898"/>
<path opacity="0.5" d="M125.902 72.0801L123.41 73.3438L124.709 75.9042L127.201 74.6405L125.902 72.0801Z" fill="#5CA898"/>
<path opacity="0.5" d="M123.34 67.0271L120.848 68.2909L122.147 70.8513L124.638 69.5875L123.34 67.0271Z" fill="#5CA898"/>
<path opacity="0.5" d="M120.776 61.9739L118.284 63.2377L119.584 65.8005L122.076 64.5367L120.776 61.9739Z" fill="#5CA898"/>
<path opacity="0.5" d="M118.214 56.9223L115.722 58.186L117.022 60.7488L119.514 59.485L118.214 56.9223Z" fill="#5CA898"/>
<path opacity="0.5" d="M115.652 51.8709L113.161 53.1346L114.461 55.6974L116.952 54.4336L115.652 51.8709Z" fill="#5CA898"/>
<path opacity="0.5" d="M113.079 46.9322L110.579 48.1942L111.877 50.7652L114.377 49.5031L113.079 46.9322Z" fill="#5CA898"/>
<path opacity="0.5" d="M110.526 41.7687L108.035 43.0325L109.335 45.5953L111.826 44.3315L110.526 41.7687Z" fill="#5CA898"/>
<path opacity="0.5" d="M107.965 36.717L105.473 37.9807L106.773 40.5435L109.265 39.2797L107.965 36.717Z" fill="#5CA898"/>
<path opacity="0.5" d="M105.403 31.6656L102.911 32.9294L104.21 35.4897L106.702 34.226L105.403 31.6656Z" fill="#5CA898"/>
<path opacity="0.5" d="M130.953 69.5171L128.462 70.7809L129.76 73.3412L132.252 72.0775L130.953 69.5171Z" fill="#5CA898"/>
<path opacity="0.5" d="M128.391 64.4657L125.9 65.7294L127.199 68.2898L129.69 67.026L128.391 64.4657Z" fill="#5CA898"/>
<path opacity="0.5" d="M125.827 59.4109L123.335 60.6747L124.635 63.2374L127.127 61.9737L125.827 59.4109Z" fill="#5CA898"/>
<path opacity="0.5" d="M123.265 54.3593L120.774 55.623L122.074 58.1858L124.565 56.922L123.265 54.3593Z" fill="#5CA898"/>
<path opacity="0.5" d="M120.703 49.3079L118.212 50.5716L119.512 53.1344L122.003 51.8706L120.703 49.3079Z" fill="#5CA898"/>
<path opacity="0.5" d="M118.14 44.2568L115.649 45.5206L116.949 48.0833L119.44 46.8196L118.14 44.2568Z" fill="#5CA898"/>
<path opacity="0.5" d="M115.578 39.2069L113.087 40.4707L114.387 43.0335L116.878 41.7697L115.578 39.2069Z" fill="#5CA898"/>
<path opacity="0.5" d="M113.016 34.1553L110.525 35.419L111.825 37.9818L114.316 36.718L113.016 34.1553Z" fill="#5CA898"/>
<path opacity="0.5" d="M110.453 29.1032L107.962 30.3669L109.26 32.9273L111.752 31.6636L110.453 29.1032Z" fill="#5CA898"/>
<path opacity="0.5" d="M136.004 66.9541L133.513 68.2178L134.812 70.7782L137.303 69.5144L136.004 66.9541Z" fill="#5CA898"/>
<path opacity="0.5" d="M133.443 61.9027L130.951 63.1664L132.25 65.7268L134.742 64.4631L133.443 61.9027Z" fill="#5CA898"/>
<path opacity="0.5" d="M130.879 56.8492L128.387 58.113L129.687 60.6758L132.179 59.412L130.879 56.8492Z" fill="#5CA898"/>
<path opacity="0.5" d="M128.317 51.7978L125.825 53.0616L127.125 55.6243L129.617 54.3606L128.317 51.7978Z" fill="#5CA898"/>
<path opacity="0.5" d="M125.755 46.7461L123.264 48.0098L124.564 50.5726L127.055 49.3088L125.755 46.7461Z" fill="#5CA898"/>
<path opacity="0.5" d="M123.192 41.695L120.701 42.9588L122.001 45.5215L124.492 44.2578L123.192 41.695Z" fill="#5CA898"/>
<path opacity="0.5" d="M120.629 36.6439L118.138 37.9077L119.438 40.4704L121.929 39.2067L120.629 36.6439Z" fill="#5CA898"/>
<path opacity="0.5" d="M118.068 31.5926L115.576 32.8563L116.876 35.4191L119.368 34.1553L118.068 31.5926Z" fill="#5CA898"/>
<path opacity="0.5" d="M115.505 26.5415L113.013 27.8053L114.312 30.3656L116.803 29.1019L115.505 26.5415Z" fill="#5CA898"/>
<path opacity="0.5" d="M141.058 64.3919L138.566 65.6557L139.865 68.216L142.356 66.9523L141.058 64.3919Z" fill="#5CA898"/>
<path opacity="0.5" d="M138.495 59.3409L136.003 60.6046L137.302 63.165L139.793 61.9012L138.495 59.3409Z" fill="#5CA898"/>
<path opacity="0.5" d="M135.932 54.2871L133.44 55.5508L134.74 58.1136L137.232 56.8498L135.932 54.2871Z" fill="#5CA898"/>
<path opacity="0.5" d="M133.369 49.236L130.877 50.4998L132.177 53.0625L134.669 51.7988L133.369 49.236Z" fill="#5CA898"/>
<path opacity="0.5" d="M130.807 44.1844L128.315 45.4481L129.615 48.0109L132.107 46.7471L130.807 44.1844Z" fill="#5CA898"/>
<path opacity="0.5" d="M128.244 39.132L125.752 40.3958L127.052 42.9585L129.544 41.6947L128.244 39.132Z" fill="#5CA898"/>
<path opacity="0.5" d="M125.682 34.0806L123.19 35.3444L124.49 37.9071L126.982 36.6434L125.682 34.0806Z" fill="#5CA898"/>
<path opacity="0.5" d="M123.119 29.0295L120.627 30.2933L121.927 32.8561L124.419 31.5923L123.119 29.0295Z" fill="#5CA898"/>
<path opacity="0.5" d="M120.556 23.9785L118.064 25.2422L119.363 27.8026L121.855 26.5389L120.556 23.9785Z" fill="#5CA898"/>
<path opacity="0.5" d="M146.109 61.8302L143.618 63.094L144.917 65.6544L147.408 64.3906L146.109 61.8302Z" fill="#5CA898"/>
<path opacity="0.5" d="M143.546 56.7779L141.054 58.0416L142.353 60.602L144.845 59.3382L143.546 56.7779Z" fill="#5CA898"/>
<path opacity="0.5" d="M140.983 51.7241L138.492 52.9879L139.791 55.5506L142.283 54.2869L140.983 51.7241Z" fill="#5CA898"/>
<path opacity="0.5" d="M138.42 46.673L135.929 47.9368L137.229 50.4995L139.72 49.2358L138.42 46.673Z" fill="#5CA898"/>
<path opacity="0.5" d="M135.857 41.622L133.366 42.8857L134.666 45.4485L137.157 44.1847L135.857 41.622Z" fill="#5CA898"/>
<path opacity="0.5" d="M133.295 36.5703L130.804 37.8341L132.104 40.3968L134.595 39.1331L133.295 36.5703Z" fill="#5CA898"/>
<path opacity="0.5" d="M130.733 31.5176L128.242 32.7813L129.542 35.3441L132.033 34.0803L130.733 31.5176Z" fill="#5CA898"/>
<path opacity="0.5" d="M128.17 26.4666L125.679 27.7303L126.979 30.2931L129.47 29.0293L128.17 26.4666Z" fill="#5CA898"/>
<path opacity="0.5" d="M125.609 21.4164L123.118 22.6801L124.416 25.2405L126.908 23.9767L125.609 21.4164Z" fill="#5CA898"/>
<path opacity="0.5" d="M151.161 59.2672L148.669 60.531L149.968 63.0914L152.459 61.8276L151.161 59.2672Z" fill="#5CA898"/>
<path opacity="0.5" d="M148.598 54.2162L146.106 55.4799L147.405 58.0403L149.896 56.7765L148.598 54.2162Z" fill="#5CA898"/>
<path opacity="0.5" d="M146.035 49.1624L143.543 50.4261L144.843 52.9889L147.335 51.7251L146.035 49.1624Z" fill="#5CA898"/>
<path opacity="0.5" d="M143.543 44.2557L141.044 45.5177L142.342 48.0886L144.841 46.8266L143.543 44.2557Z" fill="#5CA898"/>
<path opacity="0.5" d="M140.908 39.059L138.417 40.3227L139.717 42.8855L142.208 41.6217L140.908 39.059Z" fill="#5CA898"/>
<path opacity="0.5" d="M138.348 34.007L135.856 35.2708L137.156 37.8335L139.648 36.5697L138.348 34.007Z" fill="#5CA898"/>
<path opacity="0.5" d="M135.785 28.9571L133.294 30.2209L134.594 32.7836L137.085 31.5199L135.785 28.9571Z" fill="#5CA898"/>
<path opacity="0.5" d="M133.222 23.906L130.731 25.1698L132.031 27.7326L134.522 26.4688L133.222 23.906Z" fill="#5CA898"/>
<path opacity="0.5" d="M130.66 18.8533L128.169 20.1171L129.468 22.6775L131.959 21.4137L130.66 18.8533Z" fill="#5CA898"/>
<path opacity="0.5" d="M156.211 56.7048L153.719 57.9686L155.018 60.5289L157.509 59.2652L156.211 56.7048Z" fill="#5CA898"/>
<path opacity="0.5" d="M153.65 51.6528L151.159 52.9166L152.457 55.477L154.949 54.2132L153.65 51.6528Z" fill="#5CA898"/>
<path opacity="0.5" d="M151.086 46.5994L148.595 47.8632L149.894 50.4259L152.386 49.1622L151.086 46.5994Z" fill="#5CA898"/>
<path opacity="0.5" d="M148.523 41.5483L146.031 42.8121L147.331 45.3748L149.823 44.1111L148.523 41.5483Z" fill="#5CA898"/>
<path opacity="0.5" d="M145.961 36.4956L143.469 37.7594L144.769 40.3221L147.261 39.0584L145.961 36.4956Z" fill="#5CA898"/>
<path opacity="0.5" d="M143.399 31.4458L140.907 32.7095L142.207 35.2723L144.699 34.0085L143.399 31.4458Z" fill="#5CA898"/>
<path opacity="0.5" d="M140.837 26.3941L138.345 27.6578L139.645 30.2206L142.137 28.9568L140.837 26.3941Z" fill="#5CA898"/>
<path opacity="0.5" d="M138.274 21.343L135.782 22.6068L137.082 25.1695L139.574 23.9058L138.274 21.343Z" fill="#5CA898"/>
<path opacity="0.5" d="M135.712 16.2916L133.221 17.5554L134.519 20.1158L137.011 18.852L135.712 16.2916Z" fill="#5CA898"/>
<path opacity="0.5" d="M161.262 54.1418L158.77 55.4056L160.069 57.966L162.561 56.7022L161.262 54.1418Z" fill="#5CA898"/>
<path opacity="0.5" d="M158.702 49.091L156.211 50.3548L157.509 52.9151L160.001 51.6514L158.702 49.091Z" fill="#5CA898"/>
<path opacity="0.5" d="M156.137 44.0364L153.646 45.3001L154.946 47.8629L157.437 46.5991L156.137 44.0364Z" fill="#5CA898"/>
<path opacity="0.5" d="M153.575 38.9865L151.083 40.2503L152.383 42.813L154.875 41.5493L153.575 38.9865Z" fill="#5CA898"/>
<path opacity="0.5" d="M151.013 33.9351L148.522 35.1989L149.822 37.7616L152.313 36.4979L151.013 33.9351Z" fill="#5CA898"/>
<path opacity="0.5" d="M148.45 28.8841L145.959 30.1478L147.259 32.7106L149.75 31.4468L148.45 28.8841Z" fill="#5CA898"/>
<path opacity="0.5" d="M145.887 23.8317L143.395 25.0954L144.695 27.6582L147.187 26.3944L145.887 23.8317Z" fill="#5CA898"/>
<path opacity="0.5" d="M143.326 18.7797L140.835 20.0434L142.135 22.6062L144.626 21.3424L143.326 18.7797Z" fill="#5CA898"/>
<path opacity="0.5" d="M140.763 13.7286L138.272 14.9924L139.571 17.5528L142.062 16.289L140.763 13.7286Z" fill="#5CA898"/>
</g>
<path d="M94.0361 34.2985L91.5447 35.5622L92.8084 38.0536L95.2999 36.7898L94.0361 34.2985Z" fill="#5CA898"/>
<path d="M104.138 29.1743L101.647 30.438L102.91 32.9294L105.402 31.6656L104.138 29.1743Z" fill="#5CA898"/>
<path d="M99.0868 31.7372L96.5954 33.001L97.8591 35.4923L100.351 34.2286L99.0868 31.7372Z" fill="#5CA898"/>
<g opacity="0.5">
<path opacity="0.5" d="M96.5948 33.0008L94.0343 34.2996L95.2981 36.791L97.8586 35.4922L96.5948 33.0008Z" fill="#5CA898"/>
</g>
<g opacity="0.5">
<path opacity="0.5" d="M101.646 30.4378L99.0855 31.7366L100.349 34.2279L102.91 32.9291L101.646 30.4378Z" fill="#5CA898"/>
</g>
<path d="M109.19 26.6126L106.698 27.8763L107.962 30.3677L110.454 29.1039L109.19 26.6126Z" fill="#5CA898"/>
<g opacity="0.5">
<path opacity="0.5" d="M106.7 27.8769L104.139 29.1757L105.403 31.6671L107.963 30.3683L106.7 27.8769Z" fill="#5CA898"/>
</g>
<path d="M114.241 24.0495L111.75 25.3133L113.013 27.8046L115.505 26.5409L114.241 24.0495Z" fill="#5CA898"/>
<g opacity="0.5">
<path opacity="0.5" d="M111.751 25.314L109.19 26.6128L110.454 29.1041L113.015 27.8053L111.751 25.314Z" fill="#5CA898"/>
</g>
<path d="M119.293 21.4877L116.802 22.7515L118.065 25.2428L120.557 23.9791L119.293 21.4877Z" fill="#5CA898"/>
<g opacity="0.5">
<path opacity="0.5" d="M116.802 22.751L114.242 24.0497L115.505 26.5411L118.066 25.2423L116.802 22.751Z" fill="#5CA898"/>
</g>
<path d="M124.346 18.9257L121.854 20.1895L123.118 22.6808L125.61 21.417L124.346 18.9257Z" fill="#5CA898"/>
<g opacity="0.5">
<path opacity="0.5" d="M121.853 20.1879L119.293 21.4867L120.557 23.978L123.117 22.6793L121.853 20.1879Z" fill="#5CA898"/>
</g>
<path d="M129.397 16.3627L126.906 17.6264L128.17 20.1178L130.661 18.854L129.397 16.3627Z" fill="#5CA898"/>
<g opacity="0.5">
<path opacity="0.5" d="M126.904 17.6269L124.343 18.9257L125.607 21.417L128.168 20.1182L126.904 17.6269Z" fill="#5CA898"/>
</g>
<path d="M134.447 13.8003L131.956 15.0641L133.22 17.5554L135.711 16.2916L134.447 13.8003Z" fill="#5CA898"/>
<g opacity="0.5">
<path opacity="0.5" d="M132.036 15.1204L129.468 16.4174L130.73 18.9167L133.298 17.6197L132.036 15.1204Z" fill="#5CA898"/>
</g>
<path d="M139.499 11.2385L137.008 12.5023L138.272 14.9936L140.763 13.7298L139.499 11.2385Z" fill="#5CA898"/>
<g opacity="0.5">
<path opacity="0.5" d="M137.009 12.5017L134.448 13.8005L135.712 16.2918L138.272 14.993L137.009 12.5017Z" fill="#5CA898"/>
</g>
<path d="M96.5966 39.3504L94.1052 40.6142L95.3689 43.1055L97.8604 41.8418L96.5966 39.3504Z" fill="#5CA898"/>
<path d="M101.649 36.7886L99.1571 38.0524L100.421 40.5437L102.912 39.28L101.649 36.7886Z" fill="#5CA898"/>
<g opacity="0.5">
<path opacity="0.5" d="M99.1577 38.0518L96.5972 39.3506L97.861 41.842L100.421 40.5432L99.1577 38.0518Z" fill="#5CA898"/>
</g>
<path d="M106.702 34.2266L104.21 35.4904L105.474 37.9817L107.965 36.7179L106.702 34.2266Z" fill="#5CA898"/>
<g opacity="0.5">
<path opacity="0.5" d="M104.209 35.4901L101.649 36.7889L102.913 39.2803L105.473 37.9815L104.209 35.4901Z" fill="#5CA898"/>
</g>
<path d="M111.753 31.6636L109.261 32.9273L110.525 35.4187L113.017 34.1549L111.753 31.6636Z" fill="#5CA898"/>
<g opacity="0.5">
<path opacity="0.5" d="M109.261 32.9272L106.7 34.226L107.964 36.7173L110.525 35.4185L109.261 32.9272Z" fill="#5CA898"/>
</g>
<path d="M116.804 29.1006L114.313 30.3643L115.576 32.8557L118.068 31.5919L116.804 29.1006Z" fill="#5CA898"/>
<g opacity="0.5">
<path opacity="0.5" d="M114.313 30.3653L111.752 31.6641L113.016 34.1555L115.576 32.8567L114.313 30.3653Z" fill="#5CA898"/>
</g>
<path d="M121.856 26.5388L119.365 27.8026L120.628 30.2939L123.12 29.0301L121.856 26.5388Z" fill="#5CA898"/>
<g opacity="0.5">
<path opacity="0.5" d="M119.364 27.8026L116.804 29.1014L118.067 31.5927L120.628 30.2939L119.364 27.8026Z" fill="#5CA898"/>
</g>
<path d="M126.906 23.9777L124.415 25.2414L125.679 27.7328L128.17 26.469L126.906 23.9777Z" fill="#5CA898"/>
<g opacity="0.5">
<path opacity="0.5" d="M124.416 25.2409L121.855 26.5396L123.119 29.031L125.679 27.7322L124.416 25.2409Z" fill="#5CA898"/>
</g>
<path d="M131.959 21.4143L129.468 22.6781L130.731 25.1694L133.223 23.9057L131.959 21.4143Z" fill="#5CA898"/>
<g opacity="0.5">
<path opacity="0.5" d="M129.467 22.6779L126.906 23.9767L128.17 26.468L130.731 25.1692L129.467 22.6779Z" fill="#5CA898"/>
</g>
<path d="M137.01 18.8513L134.519 20.1151L135.783 22.6065L138.274 21.3427L137.01 18.8513Z" fill="#5CA898"/>
<g opacity="0.5">
<path opacity="0.5" d="M134.519 20.1161L131.958 21.4149L133.222 23.9062L135.783 22.6074L134.519 20.1161Z" fill="#5CA898"/>
</g>
<path d="M142.062 16.2883L139.57 17.5521L140.834 20.0434L143.325 18.7797L142.062 16.2883Z" fill="#5CA898"/>
<g opacity="0.5">
<path opacity="0.5" d="M139.57 17.5531L137.01 18.8518L138.273 21.3432L140.834 20.0444L139.57 17.5531Z" fill="#5CA898"/>
</g>
<path d="M99.1614 44.4051L96.67 45.6688L97.9319 48.1566L100.423 46.8928L99.1614 44.4051Z" fill="#5CA898"/>
<path d="M104.213 41.8434L101.722 43.1071L102.984 45.5949L105.475 44.3311L104.213 41.8434Z" fill="#5CA898"/>
<g opacity="0.5">
<path opacity="0.5" d="M101.721 43.107L99.1605 44.4058L100.422 46.8935L102.983 45.5947L101.721 43.107Z" fill="#5CA898"/>
</g>
<path d="M109.264 39.2804L106.773 40.5441L108.035 43.0319L110.526 41.7681L109.264 39.2804Z" fill="#5CA898"/>
<g opacity="0.5">
<path opacity="0.5" d="M106.774 40.5436L104.213 41.8424L105.475 44.3301L108.036 43.0314L106.774 40.5436Z" fill="#5CA898"/>
</g>
<path d="M114.316 36.7174L111.824 37.9811L113.086 40.4689L115.578 39.2051L114.316 36.7174Z" fill="#5CA898"/>
<g opacity="0.5">
<path opacity="0.5" d="M111.825 37.9818L109.265 39.2805L110.527 41.7683L113.087 40.4695L111.825 37.9818Z" fill="#5CA898"/>
</g>
<path d="M119.368 34.154L116.877 35.4178L118.139 37.9056L120.63 36.6418L119.368 34.154Z" fill="#5CA898"/>
<g opacity="0.5">
<path opacity="0.5" d="M116.877 35.4188L114.316 36.7176L115.578 39.2053L118.139 37.9065L116.877 35.4188Z" fill="#5CA898"/>
</g>
<path d="M124.421 31.5935L121.929 32.8573L123.191 35.3451L125.682 34.0813L124.421 31.5935Z" fill="#5CA898"/>
<g opacity="0.5">
<path opacity="0.5" d="M121.928 32.8571L119.368 34.1559L120.63 36.6436L123.19 35.3448L121.928 32.8571Z" fill="#5CA898"/>
</g>
<path d="M129.471 29.0311L126.979 30.2949L128.241 32.7827L130.733 31.5189L129.471 29.0311Z" fill="#5CA898"/>
<g opacity="0.5">
<path opacity="0.5" d="M126.979 30.2947L124.418 31.5935L125.68 34.0812L128.24 32.7825L126.979 30.2947Z" fill="#5CA898"/>
</g>
<path d="M134.522 26.4681L132.03 27.7319L133.292 30.2197L135.784 28.9559L134.522 26.4681Z" fill="#5CA898"/>
<g opacity="0.5">
<path opacity="0.5" d="M132.031 27.7329L129.47 29.0317L130.732 31.5194L133.292 30.2207L132.031 27.7329Z" fill="#5CA898"/>
</g>
<path d="M139.573 23.9051L137.082 25.1689L138.344 27.6567L140.835 26.3929L139.573 23.9051Z" fill="#5CA898"/>
<g opacity="0.5">
<path opacity="0.5" d="M137.083 25.1695L134.523 26.4683L135.785 28.9561L138.345 27.6573L137.083 25.1695Z" fill="#5CA898"/>
</g>
<path d="M144.625 21.3446L142.134 22.6083L143.396 25.0961L145.887 23.8323L144.625 21.3446Z" fill="#5CA898"/>
<g opacity="0.5">
<path opacity="0.5" d="M142.135 22.6078L139.574 23.9066L140.836 26.3944L143.397 25.0956L142.135 22.6078Z" fill="#5CA898"/>
</g>
<path d="M101.724 49.4562L99.2327 50.72L100.495 53.2078L102.986 51.944L101.724 49.4562Z" fill="#5CA898"/>
<path d="M106.776 46.8944L104.285 48.1582L105.547 50.646L108.038 49.3822L106.776 46.8944Z" fill="#5CA898"/>
<g opacity="0.5">
<path opacity="0.5" d="M104.284 48.158L101.724 49.4568L102.985 51.9446L105.546 50.6458L104.284 48.158Z" fill="#5CA898"/>
</g>
<path d="M111.827 44.3315L109.336 45.5952L110.598 48.083L113.089 46.8192L111.827 44.3315Z" fill="#5CA898"/>
<g opacity="0.5">
<path opacity="0.5" d="M109.317 45.6993L106.748 46.9963L108.008 49.492L110.577 48.195L109.317 45.6993Z" fill="#5CA898"/>
</g>
<path d="M116.879 41.7684L114.387 43.0322L115.649 45.52L118.141 44.2562L116.879 41.7684Z" fill="#5CA898"/>
<g opacity="0.5">
<path opacity="0.5" d="M114.388 43.0317L111.827 44.3304L113.089 46.8182L115.65 45.5194L114.388 43.0317Z" fill="#5CA898"/>
</g>
<path d="M121.93 39.2067L119.439 40.4705L120.701 42.9582L123.192 41.6945L121.93 39.2067Z" fill="#5CA898"/>
<g opacity="0.5">
<path opacity="0.5" d="M119.439 40.4704L116.878 41.7692L118.14 44.257L120.701 42.9582L119.439 40.4704Z" fill="#5CA898"/>
</g>
<path d="M126.981 36.6455L124.49 37.9093L125.752 40.397L128.243 39.1333L126.981 36.6455Z" fill="#5CA898"/>
<g opacity="0.5">
<path opacity="0.5" d="M124.49 37.9088L121.93 39.2076L123.192 41.6953L125.752 40.3965L124.49 37.9088Z" fill="#5CA898"/>
</g>
<path d="M132.034 34.0822L129.542 35.3459L130.804 37.8337L133.296 36.5699L132.034 34.0822Z" fill="#5CA898"/>
<g opacity="0.5">
<path opacity="0.5" d="M129.542 35.3457L126.981 36.6445L128.243 39.1323L130.804 37.8335L129.542 35.3457Z" fill="#5CA898"/>
</g>
<path d="M137.085 31.5192L134.593 32.7829L135.855 35.2707L138.347 34.0069L137.085 31.5192Z" fill="#5CA898"/>
<g opacity="0.5">
<path opacity="0.5" d="M134.593 32.7827L132.032 34.0815L133.294 36.5693L135.855 35.2705L134.593 32.7827Z" fill="#5CA898"/>
</g>
<path d="M142.137 28.9575L139.645 30.2212L140.907 32.709L143.399 31.4452L142.137 28.9575Z" fill="#5CA898"/>
<g opacity="0.5">
<path opacity="0.5" d="M139.645 30.2222L137.085 31.521L138.347 34.0088L140.907 32.71L139.645 30.2222Z" fill="#5CA898"/>
</g>
<path d="M147.188 26.3945L144.696 27.6582L145.958 30.146L148.45 28.8822L147.188 26.3945Z" fill="#5CA898"/>
<g opacity="0.5">
<path opacity="0.5" d="M144.698 27.6589L142.137 28.9577L143.399 31.4455L145.96 30.1467L144.698 27.6589Z" fill="#5CA898"/>
</g>
<path d="M104.286 54.5076L101.794 55.7714L103.056 58.2592L105.548 56.9954L104.286 54.5076Z" fill="#5CA898"/>
<path d="M109.337 51.9446L106.846 53.2084L108.108 55.6962L110.599 54.4324L109.337 51.9446Z" fill="#5CA898"/>
<g opacity="0.5">
<path opacity="0.5" d="M106.847 53.2091L104.287 54.5079L105.549 56.9956L108.109 55.6969L106.847 53.2091Z" fill="#5CA898"/>
</g>
<path d="M114.39 49.3825L111.899 50.6463L113.161 53.134L115.652 51.8703L114.39 49.3825Z" fill="#5CA898"/>
<g opacity="0.5">
<path opacity="0.5" d="M111.897 50.6466L109.337 51.9454L110.599 54.4332L113.159 53.1344L111.897 50.6466Z" fill="#5CA898"/>
</g>
<path d="M119.441 46.8214L116.949 48.0851L118.211 50.5729L120.703 49.3092L119.441 46.8214Z" fill="#5CA898"/>
<g opacity="0.5">
<path opacity="0.5" d="M116.948 48.0837L114.388 49.3824L115.65 51.8702L118.21 50.5714L116.948 48.0837Z" fill="#5CA898"/>
</g>
<path d="M124.492 44.2584L122.001 45.5222L123.263 48.0099L125.754 46.7462L124.492 44.2584Z" fill="#5CA898"/>
<g opacity="0.5">
<path opacity="0.5" d="M122.001 45.5231L119.44 46.8219L120.702 49.3097L123.263 48.0109L122.001 45.5231Z" fill="#5CA898"/>
</g>
<path d="M129.543 41.6954L127.052 42.9592L128.314 45.4469L130.805 44.1832L129.543 41.6954Z" fill="#5CA898"/>
<g opacity="0.5">
<path opacity="0.5" d="M127.053 42.9598L124.493 44.2586L125.755 46.7463L128.315 45.4476L127.053 42.9598Z" fill="#5CA898"/>
</g>
<path d="M134.595 39.1336L132.104 40.3973L133.366 42.8851L135.857 41.6213L134.595 39.1336Z" fill="#5CA898"/>
<g opacity="0.5">
<path opacity="0.5" d="M132.105 40.3968L129.544 41.6956L130.806 44.1834L133.366 42.8846L132.105 40.3968Z" fill="#5CA898"/>
</g>
<path d="M139.647 36.5719L137.156 37.8356L138.417 40.3234L140.909 39.0596L139.647 36.5719Z" fill="#5CA898"/>
<g opacity="0.5">
<path opacity="0.5" d="M137.156 37.8338L134.595 39.1326L135.857 41.6204L138.418 40.3216L137.156 37.8338Z" fill="#5CA898"/>
</g>
<path d="M144.7 34.0085L142.208 35.2723L143.47 37.7601L145.961 36.4963L144.7 34.0085Z" fill="#5CA898"/>
<g opacity="0.5">
<path opacity="0.5" d="M142.208 35.2721L139.647 36.5709L140.909 39.0587L143.469 37.7599L142.208 35.2721Z" fill="#5CA898"/>
</g>
<path d="M149.751 31.4456L147.259 32.7093L148.521 35.1971L151.013 33.9333L149.751 31.4456Z" fill="#5CA898"/>
<g opacity="0.5">
<path opacity="0.5" d="M147.258 32.7109L144.698 34.0097L145.96 36.4974L148.52 35.1987L147.258 32.7109Z" fill="#5CA898"/>
</g>
<path d="M152.313 36.4972L149.821 37.761L151.083 40.2487L153.575 38.985L152.313 36.4972Z" fill="#5CA898"/>
<path d="M147.261 39.0599L144.77 40.3237L146.032 42.8115L148.523 41.5477L147.261 39.0599Z" fill="#5CA898"/>
<path d="M142.21 41.6229L139.718 42.8867L140.98 45.3745L143.472 44.1107L142.21 41.6229Z" fill="#5CA898"/>
<path d="M137.158 44.1834L134.666 45.4472L135.928 47.935L138.42 46.6712L137.158 44.1834Z" fill="#5CA898"/>
<path d="M132.106 46.7465L129.615 48.0102L130.877 50.498L133.368 49.2342L132.106 46.7465Z" fill="#5CA898"/>
<path d="M127.055 49.3094L124.564 50.5732L125.826 53.061L128.317 51.7972L127.055 49.3094Z" fill="#5CA898"/>
<path d="M122.004 51.8725L119.512 53.1362L120.774 55.624L123.266 54.3602L122.004 51.8725Z" fill="#5CA898"/>
<path d="M116.951 54.4345L114.459 55.6983L115.721 58.186L118.213 56.9223L116.951 54.4345Z" fill="#5CA898"/>
<path d="M111.899 56.9963L109.408 58.2601L110.669 60.7478L113.161 59.4841L111.899 56.9963Z" fill="#5CA898"/>
<path d="M106.849 59.5587L104.357 60.8225L105.619 63.3102L108.111 62.0465L106.849 59.5587Z" fill="#5CA898"/>
<g opacity="0.5">
<path opacity="0.5" d="M109.409 58.2607L106.848 59.5595L108.11 62.0473L110.671 60.7485L109.409 58.2607Z" fill="#5CA898"/>
</g>
<g opacity="0.5">
<path opacity="0.5" d="M114.46 55.6977L111.9 56.9965L113.162 59.4843L115.722 58.1855L114.46 55.6977Z" fill="#5CA898"/>
</g>
<g opacity="0.5">
<path opacity="0.5" d="M119.512 53.136L116.951 54.4348L118.213 56.9226L120.774 55.6238L119.512 53.136Z" fill="#5CA898"/>
</g>
<g opacity="0.5">
<path opacity="0.5" d="M124.563 50.573L122.002 51.8718L123.264 54.3596L125.825 53.0608L124.563 50.573Z" fill="#5CA898"/>
</g>
<g opacity="0.5">
<path opacity="0.5" d="M129.615 48.0112L127.054 49.31L128.316 51.7978L130.877 50.499L129.615 48.0112Z" fill="#5CA898"/>
</g>
<g opacity="0.5">
<path opacity="0.5" d="M134.668 45.4479L132.107 46.7466L133.369 49.2344L135.929 47.9356L134.668 45.4479Z" fill="#5CA898"/>
</g>
<g opacity="0.5">
<path opacity="0.5" d="M139.719 42.8862L137.159 44.1849L138.421 46.6727L140.981 45.3739L139.719 42.8862Z" fill="#5CA898"/>
</g>
<g opacity="0.5">
<path opacity="0.5" d="M144.769 40.3237L142.209 41.6225L143.471 44.1103L146.031 42.8115L144.769 40.3237Z" fill="#5CA898"/>
</g>
<g opacity="0.5">
<path opacity="0.5" d="M149.821 37.762L147.261 39.0608L148.523 41.5485L151.083 40.2497L149.821 37.762Z" fill="#5CA898"/>
</g>
<path d="M109.411 64.6104L106.919 65.8741L108.181 68.3619L110.673 67.0982L109.411 64.6104Z" fill="#5CA898"/>
<path d="M114.462 62.0474L111.971 63.3112L113.233 65.7989L115.724 64.5352L114.462 62.0474Z" fill="#5CA898"/>
<g opacity="0.5">
<path opacity="0.5" d="M111.97 63.3121L109.41 64.6109L110.672 67.0987L113.232 65.7999L111.97 63.3121Z" fill="#5CA898"/>
</g>
<path d="M119.503 59.6393L117.003 60.9013L118.264 63.397L120.763 62.135L119.503 59.6393Z" fill="#5CA898"/>
<g opacity="0.5">
<path opacity="0.5" d="M117.022 60.7491L114.461 62.0479L115.723 64.5357L118.284 63.2369L117.022 60.7491Z" fill="#5CA898"/>
</g>
<path d="M124.565 56.9239L122.074 58.1876L123.336 60.6754L125.827 59.4116L124.565 56.9239Z" fill="#5CA898"/>
<g opacity="0.5">
<path opacity="0.5" d="M122.075 58.1871L119.514 59.4858L120.776 61.9736L123.337 60.6748L122.075 58.1871Z" fill="#5CA898"/>
</g>
<path d="M129.617 54.3608L127.125 55.6246L128.387 58.1124L130.879 56.8486L129.617 54.3608Z" fill="#5CA898"/>
<g opacity="0.5">
<path opacity="0.5" d="M127.126 55.6241L124.565 56.9229L125.827 59.4106L128.388 58.1118L127.126 55.6241Z" fill="#5CA898"/>
</g>
<path d="M134.669 51.7975L132.178 53.0613L133.44 55.549L135.931 54.2853L134.669 51.7975Z" fill="#5CA898"/>
<g opacity="0.5">
<path opacity="0.5" d="M132.177 53.061L129.617 54.3598L130.879 56.8476L133.439 55.5488L132.177 53.061Z" fill="#5CA898"/>
</g>
<path d="M139.721 49.2358L137.23 50.4996L138.492 52.9873L140.983 51.7236L139.721 49.2358Z" fill="#5CA898"/>
<g opacity="0.5">
<path opacity="0.5" d="M137.228 50.5012L134.668 51.8L135.93 54.2877L138.49 52.9889L137.228 50.5012Z" fill="#5CA898"/>
</g>
<path d="M144.772 46.6746L142.28 47.9384L143.542 50.4261L146.034 49.1624L144.772 46.6746Z" fill="#5CA898"/>
<g opacity="0.5">
<path opacity="0.5" d="M142.28 47.9382L139.719 49.2369L140.981 51.7247L143.542 50.4259L142.28 47.9382Z" fill="#5CA898"/>
</g>
<path d="M149.823 44.1116L147.332 45.3754L148.593 47.8631L151.085 46.5994L149.823 44.1116Z" fill="#5CA898"/>
<g opacity="0.5">
<path opacity="0.5" d="M147.332 45.3748L144.772 46.6736L146.034 49.1614L148.594 47.8626L147.332 45.3748Z" fill="#5CA898"/>
</g>
<path d="M154.874 41.5486L152.383 42.8123L153.645 45.3001L156.136 44.0364L154.874 41.5486Z" fill="#5CA898"/>
<g opacity="0.5">
<path opacity="0.5" d="M152.384 42.8118L149.823 44.1106L151.085 46.5984L153.646 45.2996L152.384 42.8118Z" fill="#5CA898"/>
</g>
<path d="M157.438 46.601L154.946 47.8647L156.21 50.3561L158.701 49.0923L157.438 46.601Z" fill="#5CA898"/>
<path d="M152.386 49.1627L149.895 50.4264L151.158 52.9178L153.65 51.654L152.386 49.1627Z" fill="#5CA898"/>
<path d="M147.334 51.7245L144.843 52.9883L146.106 55.4796L148.598 54.2158L147.334 51.7245Z" fill="#5CA898"/>
<path d="M142.283 54.2872L139.791 55.551L141.055 58.0423L143.546 56.7785L142.283 54.2872Z" fill="#5CA898"/>
<path d="M137.231 56.8502L134.74 58.114L136.004 60.6053L138.495 59.3416L137.231 56.8502Z" fill="#5CA898"/>
<path d="M132.18 59.4119L129.688 60.6757L130.952 63.167L133.444 61.9032L132.18 59.4119Z" fill="#5CA898"/>
<path d="M127.128 61.9737L124.636 63.2375L125.9 65.7288L128.392 64.4651L127.128 61.9737Z" fill="#5CA898"/>
<path d="M122.077 64.5367L119.585 65.8005L120.849 68.2918L123.34 67.0281L122.077 64.5367Z" fill="#5CA898"/>
<path d="M117.025 67.0997L114.534 68.3635L115.798 70.8548L118.289 69.5911L117.025 67.0997Z" fill="#5CA898"/>
<path d="M111.972 69.6618L109.481 70.9255L110.745 73.4169L113.236 72.1531L111.972 69.6618Z" fill="#5CA898"/>
<g opacity="0.5">
<path opacity="0.5" d="M114.533 68.362L111.972 69.6608L113.236 72.1521L115.797 70.8533L114.533 68.362Z" fill="#5CA898"/>
</g>
<g opacity="0.5">
<path opacity="0.5" d="M119.585 65.8015L117.025 67.1003L118.288 69.5916L120.849 68.2928L119.585 65.8015Z" fill="#5CA898"/>
</g>
<g opacity="0.5">
<path opacity="0.5" d="M124.636 63.2385L122.076 64.5373L123.34 67.0286L125.9 65.7298L124.636 63.2385Z" fill="#5CA898"/>
</g>
<g opacity="0.5">
<path opacity="0.5" d="M129.689 60.6751L127.129 61.9739L128.392 64.4652L130.953 63.1665L129.689 60.6751Z" fill="#5CA898"/>
</g>
<g opacity="0.5">
<path opacity="0.5" d="M134.739 58.1138L132.179 59.4125L133.443 61.9039L136.003 60.6051L134.739 58.1138Z" fill="#5CA898"/>
</g>
<g opacity="0.5">
<path opacity="0.5" d="M139.791 55.5522L137.231 56.851L138.495 59.3424L141.055 58.0436L139.791 55.5522Z" fill="#5CA898"/>
</g>
<g opacity="0.5">
<path opacity="0.5" d="M144.843 52.9892L142.282 54.288L143.546 56.7794L146.106 55.4806L144.843 52.9892Z" fill="#5CA898"/>
</g>
<g opacity="0.5">
<path opacity="0.5" d="M149.894 50.4262L147.333 51.725L148.597 54.2163L151.158 52.9176L149.894 50.4262Z" fill="#5CA898"/>
</g>
<g opacity="0.5">
<path opacity="0.5" d="M154.946 47.8645L152.385 49.1633L153.649 51.6546L156.209 50.3559L154.946 47.8645Z" fill="#5CA898"/>
</g>
<path d="M114.535 74.7128L112.044 75.9766L113.308 78.4679L115.799 77.2042L114.535 74.7128Z" fill="#5CA898"/>
<path d="M119.587 72.1511L117.096 73.4149L118.359 75.9062L120.851 74.6425L119.587 72.1511Z" fill="#5CA898"/>
<g opacity="0.5">
<path opacity="0.5" d="M117.096 73.4144L114.536 74.7131L115.8 77.2045L118.36 75.9057L117.096 73.4144Z" fill="#5CA898"/>
</g>
<path d="M124.638 69.5881L122.147 70.8519L123.411 73.3432L125.902 72.0795L124.638 69.5881Z" fill="#5CA898"/>
<g opacity="0.5">
<path opacity="0.5" d="M122.147 70.8514L119.587 72.1501L120.851 74.6415L123.411 73.3427L122.147 70.8514Z" fill="#5CA898"/>
</g>
<path d="M129.69 67.0251L127.198 68.2889L128.462 70.7802L130.953 69.5165L129.69 67.0251Z" fill="#5CA898"/>
<g opacity="0.5">
<path opacity="0.5" d="M127.199 68.2895L124.639 69.5883L125.903 72.0797L128.463 70.7809L127.199 68.2895Z" fill="#5CA898"/>
</g>
<path d="M134.743 64.4643L132.252 65.728L133.515 68.2194L136.007 66.9556L134.743 64.4643Z" fill="#5CA898"/>
<g opacity="0.5">
<path opacity="0.5" d="M132.25 65.7272L129.689 67.0259L130.953 69.5173L133.513 68.2185L132.25 65.7272Z" fill="#5CA898"/>
</g>
<path d="M139.793 61.9019L137.302 63.1656L138.566 65.657L141.057 64.3932L139.793 61.9019Z" fill="#5CA898"/>
<g opacity="0.5">
<path opacity="0.5" d="M137.301 63.1655L134.741 64.4642L136.004 66.9556L138.565 65.6568L137.301 63.1655Z" fill="#5CA898"/>
</g>
<path d="M144.845 59.3389L142.353 60.6026L143.617 63.094L146.108 61.8302L144.845 59.3389Z" fill="#5CA898"/>
<g opacity="0.5">
<path opacity="0.5" d="M142.352 60.6024L139.792 61.9012L141.056 64.3926L143.616 63.0938L142.352 60.6024Z" fill="#5CA898"/>
</g>
<path d="M149.896 56.7759L147.404 58.0396L148.668 60.531L151.16 59.2672L149.896 56.7759Z" fill="#5CA898"/>
<g opacity="0.5">
<path opacity="0.5" d="M147.406 58.0403L144.845 59.3391L146.109 61.8304L148.669 60.5316L147.406 58.0403Z" fill="#5CA898"/>
</g>
<path d="M154.948 54.2154L152.457 55.4791L153.72 57.9705L156.212 56.7067L154.948 54.2154Z" fill="#5CA898"/>
<g opacity="0.5">
<path opacity="0.5" d="M152.457 55.4773L149.896 56.7761L151.16 59.2674L153.721 57.9686L152.457 55.4773Z" fill="#5CA898"/>
</g>
<path d="M159.999 51.6523L157.508 52.9161L158.772 55.4074L161.263 54.1437L159.999 51.6523Z" fill="#5CA898"/>
<g opacity="0.5">
<path opacity="0.5" d="M157.509 52.9156L154.948 54.2144L156.212 56.7057L158.772 55.4069L157.509 52.9156Z" fill="#5CA898"/>
</g>
<path d="M117.099 79.7652L114.607 81.029L115.871 83.5203L118.362 82.2565L117.099 79.7652Z" fill="#5CA898"/>
<path d="M122.15 77.2022L119.659 78.4659L120.922 80.9573L123.414 79.6935L122.15 77.2022Z" fill="#5CA898"/>
<g opacity="0.5">
<path opacity="0.5" d="M119.658 78.4657L117.097 79.7645L118.361 82.2559L120.922 80.9571L119.658 78.4657Z" fill="#5CA898"/>
</g>
<path d="M127.201 74.6392L124.71 75.9029L125.974 78.3943L128.465 77.1305L127.201 74.6392Z" fill="#5CA898"/>
<g opacity="0.5">
<path opacity="0.5" d="M124.69 76.1057L122.122 77.4027L123.384 79.902L125.952 78.605L124.69 76.1057Z" fill="#5CA898"/>
</g>
<path d="M132.253 72.0762L129.761 73.34L131.025 75.8313L133.516 74.5675L132.253 72.0762Z" fill="#5CA898"/>
<g opacity="0.5">
<path opacity="0.5" d="M129.761 73.3412L127.201 74.64L128.464 77.1313L131.025 75.8325L129.761 73.3412Z" fill="#5CA898"/>
</g>
<path d="M137.304 69.5147L134.813 70.7785L136.077 73.2698L138.568 72.0061L137.304 69.5147Z" fill="#5CA898"/>
<g opacity="0.5">
<path opacity="0.5" d="M134.813 70.7795L132.252 72.0783L133.516 74.5696L136.077 73.2708L134.813 70.7795Z" fill="#5CA898"/>
</g>
<path d="M142.356 66.9529L139.865 68.2167L141.129 70.708L143.62 69.4443L142.356 66.9529Z" fill="#5CA898"/>
<g opacity="0.5">
<path opacity="0.5" d="M139.864 68.2165L137.304 69.5153L138.567 72.0066L141.128 70.7078L139.864 68.2165Z" fill="#5CA898"/>
</g>
<path d="M147.408 64.39L144.916 65.6537L146.18 68.1451L148.671 66.8813L147.408 64.39Z" fill="#5CA898"/>
<g opacity="0.5">
<path opacity="0.5" d="M144.915 65.6535L142.355 66.9523L143.619 69.4436L146.179 68.1448L144.915 65.6535Z" fill="#5CA898"/>
</g>
<path d="M152.459 61.8282L149.968 63.092L151.231 65.5833L153.723 64.3196L152.459 61.8282Z" fill="#5CA898"/>
<g opacity="0.5">
<path opacity="0.5" d="M149.967 63.0917L147.407 64.3905L148.671 66.8818L151.231 65.583L149.967 63.0917Z" fill="#5CA898"/>
</g>
<path d="M157.51 59.2652L155.019 60.529L156.283 63.0203L158.774 61.7566L157.51 59.2652Z" fill="#5CA898"/>
<g opacity="0.5">
<path opacity="0.5" d="M155.02 60.5296L152.46 61.8284L153.724 64.3198L156.284 63.021L155.02 60.5296Z" fill="#5CA898"/>
</g>
<path d="M162.562 56.7034L160.071 57.9672L161.335 60.4585L163.826 59.1948L162.562 56.7034Z" fill="#5CA898"/>
<g opacity="0.5">
<path opacity="0.5" d="M160.072 57.9666L157.511 59.2654L158.775 61.7568L161.335 60.458L160.072 57.9666Z" fill="#5CA898"/>
</g>
<path d="M133.926 74.1546L163.406 59.4483L144.785 21.8142L139.576 11.2863L116.977 22.4676" stroke="black" stroke-width="0.5"/>
<path d="M128.532 35.5493C128.147 35.0025 127.753 34.4723 127.349 33.9521C130.225 39.9167 132.253 46.4845 134.119 52.6148C137.432 63.2187 131.799 75.148 122.852 82.4381C111.586 91.3851 96.6739 96.687 83.7505 91.3851C65.7604 83.6344 59.3285 63.6329 58.4703 44.3306C56.0223 50.7735 55.2824 57.7402 56.3225 64.5536C57.3627 71.367 60.1474 77.7956 64.4062 83.2147C68.665 88.6338 74.2531 92.8593 80.6276 95.4805C87.002 98.1018 93.9461 99.0297 100.785 98.1741C107.624 97.3186 114.126 94.7086 119.658 90.5978C125.19 86.487 129.565 81.0152 132.358 74.7139C135.15 68.4127 136.266 61.4962 135.595 54.6365C134.925 47.7769 132.492 41.2072 128.532 35.5658V35.5493Z" fill="#F8F9F4"/>
<g style="mix-blend-mode:multiply" opacity="0.1" filter="url(#filter0_f_4137_7545)">
<path d="M120.761 91.7607C136.365 76.1567 136.365 50.8576 120.761 35.2536C105.157 19.6495 79.8576 19.6495 64.2536 35.2536C48.6496 50.8576 48.6496 76.1567 64.2536 91.7607C79.8576 107.365 105.157 107.365 120.761 91.7607Z" fill="#ABAEB8"/>
</g>
<path d="M124.079 86.7607C139.683 71.1567 139.683 45.8576 124.079 30.2536C108.475 14.6496 83.1762 14.6496 67.5722 30.2536C51.9682 45.8576 51.9682 71.1567 67.5722 86.7608C83.1762 102.365 108.475 102.365 124.079 86.7607Z" fill="#FAFAFA"/>
<path d="M124.079 86.7607C108.475 102.365 83.1762 102.365 67.5722 86.7608C51.9682 71.1567 51.9682 45.8576 67.5722 30.2536" stroke="black" stroke-width="0.5" stroke-linecap="round"/>
<path d="M116.44 44.0356C118.34 46.7425 119.689 49.7972 120.408 53.0252C121.128 56.2533 121.205 59.5914 120.634 62.8491C120.064 66.1068 118.857 69.2202 117.083 72.0116C115.31 74.803 113.004 77.2177 110.297 79.1178C109.826 79.4491 109.349 79.7606 108.865 80.0522C113.824 76.0375 117.075 70.2899 117.96 63.9708C118.845 57.6517 117.298 51.2323 113.632 46.0097C109.967 40.7871 104.455 37.1506 98.2113 35.8351C91.9677 34.5196 85.4575 35.623 79.9961 38.9226C80.4379 38.5691 80.8919 38.2256 81.358 37.892C84.0649 35.9919 87.1196 34.6435 90.3476 33.9239C93.5757 33.2043 96.9138 33.1275 100.171 33.698C103.429 34.2685 106.543 35.475 109.334 37.2488C112.125 39.0225 114.54 41.3287 116.44 44.0356Z" fill="#FFF0CE"/>
<path d="M121.406 58.8261C121.406 73.036 109.887 84.5553 95.6772 84.5553C81.4674 84.5553 69.9481 73.036 69.9481 58.8261C69.9481 52.6453 72.1275 46.9734 75.7599 42.5372C80.4783 36.7746 87.6483 33.097 95.6772 33.097C109.887 33.097 121.406 44.6163 121.406 58.8261Z" fill="#F0F0F0"/>
<path d="M69.9481 58.8261C69.9481 73.036 81.4674 84.5553 95.6772 84.5553C109.887 84.5553 121.406 73.036 121.406 58.8261C121.406 44.6163 109.887 33.097 95.6772 33.097C87.6483 33.097 80.4783 36.7746 75.7599 42.5372" stroke="#262626" stroke-width="0.5" stroke-linecap="round"/>
<path d="M77.167 23.2902C82.746 20.3337 89.1086 18.6591 95.8623 18.6591C107.214 18.6591 117.46 23.3897 124.738 30.987" stroke="#262626" stroke-width="0.5" stroke-linecap="round"/>
<g style="mix-blend-mode:multiply" opacity="0.2">
<path d="M87.4643 38.1807L74.9458 73.5555C77.8938 74.5969 83.0923 67.5258 86.5442 57.7588C89.9961 47.9918 90.414 39.2254 87.4643 38.1807Z" fill="#FFC6A7"/>
<path d="M66.9315 101.351L67.462 101.539C68.8863 102.043 70.4496 101.297 70.9537 99.8722L80.2147 73.7009C80.7187 72.2765 79.9726 70.7132 78.5482 70.2092L78.0178 70.0215C76.5934 69.5174 75.0301 70.2635 74.526 71.6879L65.265 97.8592C64.761 99.2836 65.5071 100.847 66.9315 101.351Z" fill="#FFC6A7"/>
</g>
<g style="mix-blend-mode:multiply" opacity="0.2">
<path d="M87.0885 40.8641C86.952 40.5914 86.7743 40.3414 86.5615 40.1229C86.5554 40.1122 86.5498 40.1012 86.5448 40.0899C86.4639 40.0136 86.3771 39.9439 86.2849 39.8816L86.2101 39.8324C86.1072 39.7668 85.9974 39.7126 85.8827 39.6709L74.7088 71.208C74.3594 71.2735 74.0334 71.4295 73.7631 71.6604C73.4929 71.8913 73.2879 72.1891 73.1687 72.5239L72.9367 73.1779L63.6723 99.3517C63.5504 99.6913 63.497 100.052 63.5151 100.412C63.5332 100.773 63.6226 101.126 63.7779 101.451C63.9333 101.777 64.1517 102.069 64.4204 102.31C64.6891 102.55 65.0029 102.736 65.3436 102.854L65.8814 103.046C66.5651 103.287 67.3165 103.246 67.9704 102.934C68.6244 102.621 69.1275 102.061 69.3693 101.378L78.6304 75.2059C78.6966 75.0333 78.7446 74.8543 78.7738 74.6718C78.7931 74.6691 78.8125 74.669 78.8318 74.6714L78.8789 74.5435C79.0215 74.1344 79.0301 73.6906 78.9036 73.2762C78.777 72.8619 78.5218 72.4986 78.175 72.239L78.3998 71.9626L78.4262 71.9491C78.5558 71.7876 78.6754 71.6228 78.8165 71.443L79.2198 70.8887C81.2387 68.0412 83.2968 63.9731 84.9464 59.2905C87.8126 51.1553 88.5815 43.7556 87.0885 40.8641Z" fill="#FFC6A7"/>
</g>
<path d="M86.3536 38.1807L73.8352 73.5555C76.7832 74.5969 81.9816 67.5258 85.4336 57.7588C88.8855 47.9918 89.3033 39.2254 86.3536 38.1807Z" fill="white"/>
<path d="M78.1909 63.9971C80.5821 55.4349 84.6426 47.6138 87.5742 39.3705C87.3365 38.831 86.899 38.4046 86.3536 38.1807L73.8352 73.5555C75.359 74.1006 77.5059 72.4426 79.6937 69.3637C78.2941 68.157 77.5909 66.4005 78.1909 63.9971Z" fill="#F8F9F4"/>
<path d="M65.8209 101.351L66.3514 101.539C67.7758 102.043 69.3391 101.297 69.8431 99.8722L79.1041 73.7009C79.6081 72.2765 78.862 70.7132 77.4376 70.2092L76.9072 70.0215C75.4828 69.5174 73.9195 70.2635 73.4154 71.6879L64.1544 97.8592C63.6504 99.2836 64.3965 100.847 65.8209 101.351Z" fill="#FF6112"/>
<path d="M73.8934 76.0932C74.6225 73.6739 76.9393 73.2961 79.2977 73.1713L79.3448 73.0434C79.5242 72.5334 79.4942 71.973 79.2613 71.485C79.0285 70.997 78.6117 70.6212 78.1022 70.4399L76.2548 69.7895C76.0026 69.6995 75.7351 69.6603 75.4678 69.6741C75.2004 69.6878 74.9384 69.7542 74.6968 69.8695C74.4552 69.9848 74.2387 70.1467 74.0598 70.3459C73.881 70.5451 73.7432 70.7777 73.6545 71.0303L65.5791 93.8361C66.3611 93.373 67.1022 92.8442 67.7944 92.2554C72.3389 87.9059 72.5442 81.7819 73.8934 76.0932Z" fill="#FF6112"/>
<path d="M75.4429 77.8109C75.106 77.1451 74.293 76.8785 73.6271 77.2154C72.9613 77.5524 72.6947 78.3654 73.0316 79.0312C73.3686 79.6971 74.1816 79.9637 74.8474 79.6267C75.5133 79.2897 75.7799 78.4768 75.4429 77.8109Z" fill="white"/>
<path d="M67.7562 92.6861C67.6671 92.9381 67.6548 93.2108 67.7208 93.4698C67.7867 93.7288 67.928 93.9624 68.1267 94.1411C68.3254 94.3198 68.5727 94.4356 68.8372 94.4737C69.1017 94.5119 69.3716 94.4708 69.6128 94.3555C69.8539 94.2403 70.0555 94.0562 70.192 93.8264C70.3284 93.5966 70.3937 93.3315 70.3795 93.0646C70.3654 92.7978 70.2724 92.5411 70.1123 92.3271C69.9522 92.113 69.7323 91.9513 69.4803 91.8623C69.1424 91.7429 68.771 91.7626 68.4476 91.9171C68.1243 92.0716 67.8756 92.3482 67.7562 92.6861Z" fill="white"/>
<path d="M66.1497 101.235C67.0135 101.852 69.0743 102.124 70.407 98.2735L78.9217 74.2103C79.3536 73.5316 79.9582 71.841 78.9217 70.5083L80.4025 68.102C82.1918 65.6956 86.2887 57.4771 88.3619 43.8536C88.547 42.5579 88.4729 39.6333 86.6959 38.3006" stroke="#262626" stroke-width="0.5" stroke-linecap="round"/>
<g style="mix-blend-mode:multiply" opacity="0.2">
<path d="M104.838 44.7275L107.063 53.288C107.095 53.4105 107.077 53.5408 107.013 53.6502C106.949 53.7596 106.845 53.8391 106.722 53.8713C106.6 53.9035 106.469 53.8856 106.36 53.8217C106.251 53.7578 106.171 53.6531 106.139 53.5306L103.899 44.9701L102.683 45.2848L104.926 53.8489C104.959 53.9714 104.941 54.1017 104.877 54.2111C104.813 54.3205 104.708 54.4 104.586 54.4322C104.463 54.4644 104.333 54.4465 104.224 54.3826C104.114 54.3187 104.035 54.214 104.002 54.0915L101.759 45.5273L100.546 45.8457L102.786 54.4098C102.805 54.4714 102.811 54.536 102.803 54.5998C102.796 54.6637 102.776 54.7254 102.745 54.7813C102.713 54.8373 102.671 54.8863 102.62 54.9254C102.569 54.9646 102.511 54.993 102.448 55.0091C102.386 55.0252 102.321 55.0285 102.258 55.019C102.194 55.0094 102.133 54.9872 102.079 54.9535C102.024 54.9199 101.977 54.8755 101.939 54.8231C101.902 54.7708 101.876 54.7114 101.862 54.6487L99.6223 46.0882L98.665 46.3384L100.232 55.1028C100.438 56.2595 100.999 57.3236 101.836 58.1476C102.674 58.9716 103.747 59.5149 104.907 59.702L108.928 75.0598C108.567 75.1654 108.243 75.3688 107.991 75.6474C107.739 75.926 107.57 76.269 107.501 76.6382C107.579 76.6711 107.657 76.7076 107.731 76.7405C107.586 77.2224 107.578 77.735 107.707 78.2215L115.446 107.773C115.536 108.121 115.694 108.448 115.912 108.735C116.129 109.022 116.401 109.264 116.711 109.445C117.022 109.627 117.366 109.745 117.723 109.793C118.079 109.841 118.442 109.818 118.79 109.726L119.337 109.582C119.685 109.491 120.011 109.332 120.298 109.114C120.584 108.897 120.825 108.625 121.007 108.315C121.188 108.004 121.306 107.661 121.355 107.304C121.404 106.948 121.381 106.586 121.29 106.238L120.251 102.276L115.684 84.8219L113.551 76.6903L113.376 76.0176C113.241 75.5016 112.909 75.0591 112.451 74.7851C111.993 74.511 111.446 74.4272 110.928 74.5516L106.906 59.1975C107.769 58.5121 108.413 57.5893 108.759 56.5427C109.104 55.4961 109.137 54.3713 108.851 53.3068C108.813 53.1589 108.772 53.0148 108.723 52.8707L105.795 44.4662L104.838 44.7275Z" fill="#FF6112"/>
</g>
<path d="M111.614 80.3487L105.781 58.0826C106.644 57.399 107.288 56.4785 107.635 55.4341C107.982 54.3896 108.016 53.2667 107.734 52.2029C107.696 52.0551 107.654 51.911 107.605 51.7669L104.678 43.3624L103.72 43.6125L105.946 52.1842C105.978 52.3067 105.96 52.437 105.896 52.5464C105.832 52.6558 105.727 52.7353 105.605 52.7675C105.482 52.7997 105.352 52.7818 105.243 52.7179C105.133 52.654 105.054 52.5493 105.022 52.4267L102.782 43.8663L101.565 44.181L103.809 52.7451C103.825 52.8058 103.829 52.869 103.82 52.9311C103.812 52.9933 103.791 53.0532 103.76 53.1073C103.728 53.1615 103.686 53.2089 103.636 53.2468C103.586 53.2848 103.529 53.3125 103.468 53.3284C103.408 53.3443 103.345 53.3482 103.282 53.3397C103.22 53.3312 103.16 53.3105 103.106 53.2789C103.052 53.2472 103.005 53.2052 102.967 53.1552C102.929 53.1053 102.901 53.0483 102.885 52.9876L100.641 44.4235L99.429 44.7418L101.669 53.306C101.687 53.3675 101.693 53.4322 101.686 53.496C101.679 53.5598 101.659 53.6216 101.627 53.6775C101.596 53.7335 101.553 53.7825 101.502 53.8216C101.452 53.8607 101.393 53.8892 101.331 53.9053C101.269 53.9213 101.204 53.9247 101.141 53.9151C101.077 53.9056 101.016 53.8833 100.961 53.8497C100.907 53.816 100.859 53.7717 100.822 53.7193C100.785 53.6669 100.759 53.6076 100.745 53.5449L98.505 44.9844L97.5477 45.2346L99.1151 53.999C99.321 55.1557 99.8815 56.2198 100.719 57.0438C101.556 57.8678 102.629 58.4111 103.789 58.5982L109.637 80.8642L111.614 80.3487Z" fill="white"/>
<path d="M117.658 108.614L118.202 108.471C119.664 108.088 120.538 106.593 120.156 105.131L112.416 75.5826C112.033 74.121 110.538 73.2465 109.076 73.6293L108.532 73.7719C107.07 74.1548 106.195 75.65 106.578 77.1117L114.318 106.66C114.701 108.122 116.196 108.996 117.658 108.614Z" fill="#FF6112"/>
<path d="M109.777 73.4442L107.881 73.9407C107.511 74.0402 107.177 74.2417 106.917 74.5222C106.657 74.8027 106.481 75.1509 106.41 75.5268C109.319 76.7086 111.179 79.3628 112.254 82.1106C113.956 86.0726 112.565 90.6236 113.524 94.8307C113.8 96.2976 114.469 97.6619 115.46 98.7775C116.452 99.8931 117.728 100.718 119.152 101.164L112.277 74.8988C112.209 74.639 112.09 74.3952 111.927 74.1814C111.764 73.9677 111.561 73.7881 111.329 73.653C111.096 73.5179 110.84 73.4299 110.574 73.3941C110.307 73.3583 110.037 73.3753 109.777 73.4442Z" fill="#FF6112"/>
<path d="M117.805 108.644C120.204 108.409 120.351 105.911 120.125 104.692L112.411 75.5136C112.057 73.7659 110.561 73.3526 109.858 73.3644L106.101 58.4571L105.998 58.1016C107.052 57.0881 108.724 53.9545 106.974 49.5285L104.684 43.6404" stroke="#262626" stroke-width="0.5" stroke-linecap="round"/>
</g>
<defs>
<filter id="filter0_f_4137_7545" x="50.5506" y="21.5505" width="83.9132" height="83.9132" filterUnits="userSpaceOnUse" color-interpolation-filters="sRGB">
<feFlood flood-opacity="0" result="BackgroundImageFix"/>
<feBlend mode="normal" in="SourceGraphic" in2="BackgroundImageFix" result="shape"/>
<feGaussianBlur stdDeviation="1" result="effect1_foregroundBlur_4137_7545"/>
</filter>
</defs>
</svg>
