<svg width="17" height="16" viewBox="0 0 17 16" fill="none" xmlns="http://www.w3.org/2000/svg">
<path d="M11.8333 2.00001C12.0083 1.82491 12.2162 1.68602 12.445 1.59126C12.6738 1.4965 12.919 1.44772 13.1666 1.44772C13.4142 1.44772 13.6594 1.4965 13.8882 1.59126C14.117 1.68602 14.3248 1.82491 14.4999 2.00001C14.675 2.1751 14.8139 2.38297 14.9087 2.61175C15.0034 2.84052 15.0522 3.08572 15.0522 3.33334C15.0522 3.58096 15.0034 3.82616 14.9087 4.05494C14.8139 4.28371 14.675 4.49158 14.4999 4.66667L5.49992 13.6667L1.83325 14.6667L2.83325 11L11.8333 2.00001Z" stroke="#FF6112" stroke-width="2" stroke-linecap="round" stroke-linejoin="round"/>
</svg>
