<svg width="16" height="16" viewBox="0 0 16 16" fill="none" xmlns="http://www.w3.org/2000/svg">
<path fill-rule="evenodd" clip-rule="evenodd" d="M9.06671 4.86668C9.06671 4.40445 8.66226 4.00001 8.20004 4.00001C7.73782 4.00001 7.33337 4.40445 7.33337 4.86668C7.33337 5.3289 7.68004 5.73334 8.20004 5.73334C8.72004 5.73334 9.06671 5.3289 9.06671 4.86668ZM7.22226 11.3333H9.44448C9.77782 11.3333 10 11.176 10 10.8614C10 10.5468 9.77782 10.3371 9.44448 10.3371H9.00004C8.94448 10.3371 8.88893 10.2847 8.88893 10.2322V7.71537C8.88893 7.13859 8.38893 6.66668 7.77782 6.66668H7.22226C6.88893 6.66668 6.66671 6.87641 6.66671 7.19102C6.66671 7.50563 6.88893 7.71537 7.22226 7.71537H7.66671C7.72226 7.71537 7.77782 7.7678 7.77782 7.82023V10.1798C7.77782 10.2322 7.72226 10.2847 7.66671 10.2847H7.22226C6.88893 10.2847 6.66671 10.4944 6.66671 10.809C6.66671 11.1236 6.88893 11.3333 7.22226 11.3333ZM8.00004 1.33334C4.33337 1.33334 1.33337 4.33334 1.33337 8.00001C1.33337 11.6667 4.33337 14.6667 8.00004 14.6667C11.6667 14.6667 14.6667 11.6667 14.6667 8.00001C14.6667 4.33334 11.6667 1.33334 8.00004 1.33334Z" fill="#FF6112"/>
</svg>
